<svg width="30" height="30" viewBox="0 0 30 30" fill="none" xmlns="http://www.w3.org/2000/svg">
<path d="M5 10.3085C5 10.3085 7.81562 11.5125 8.85032 19.6459L14.9707 26.0108C14.9707 26.0108 19.862 18.6112 8.85659 4C8.85659 4 12.4059 10.6346 11.8854 17.1061C11.8792 17.1061 10.926 12.4093 5 10.3085Z" fill="white"/>
<path d="M21.2459 4C21.2459 4 18.3237 7.32984 15.7275 12.8482C15.7275 12.8482 17.0131 15.1434 17.3956 17.2692L18.2171 15.0054C18.2171 15.0054 18.0791 10.8792 21.2459 4Z" fill="white"/>
<path d="M18.2461 22.8221L21.4442 19.9563C21.4442 19.9563 21.0053 13.6228 25.0186 10.3682C25.0186 10.3682 18.2461 13.2904 18.2461 22.8221Z" fill="white"/>
</svg>
