<svg width="30" height="30" viewBox="0 0 30 30" fill="none" xmlns="http://www.w3.org/2000/svg">
<path d="M14.9981 10.3552L18.6848 5.96379L17.8216 4.5H14.9981H12.1806L11.3174 5.96379L14.9981 10.3552Z" fill="white"/>
<path d="M17.9218 22.8409L15.0024 25.5002L12.083 22.8409L14.2591 11.832L15.0024 12.7652L15.7397 11.832L17.9218 22.8409Z" fill="white"/>
<path d="M4.5 8.85645H10.6385L12.8985 11.0765L11.3399 16.334L7.68916 14.8153L9.76331 11.8328C9.76331 11.8328 6.25643 11.8328 4.5 8.85645Z" fill="white"/>
<path d="M25.4991 8.85645H19.3606L17.1006 11.0765L18.6592 16.334L22.3099 14.8153L20.2358 11.8328C20.2358 11.8328 23.7427 11.8328 25.4991 8.85645Z" fill="white"/>
</svg>
